/* XPM */
static char *d2552d424a7548c385d3c382ca07ef2fYm5r0AOKVKRTfr0q[] = {
/* columns rows colors chars-per-pixel */
"64 64 19 1 ",
"  c #C09473",
". c #7A4841",
"X c #4D2B32",
"o c #341C27",
"O c #394A50",
"+ c #577277",
"@ c #819796",
"# c #A8B5B2",
"$ c #D7B594",
"% c #E7D5B3",
"& c #AD7757",
"* c #10141F",
"= c #202E37",
"- c #241527",
"; c #151D28",
": c #090A14",
"> c #EBEDE9",
", c #19332D",
"< c white",
/* pixels */
" .XoO+OO+++@### $$%$$$%>><O,,,,,,,,,,,<><%%$%$#$$$$$  $$$$#$ ##$",
".XXoO++OX+XO++&&&+&& >OOOO@###########OOOO>$&&&&  &&.&&&&&&&&++&",
"Xo*OO+O.OX==XOO..O@OOO######@@@@@@@@######OOO@...OO.........OO.O",
"-*XOOOOOOOX-ooo++++###@@@@@@#@@@@@@#@@@@@@###++++oXXooXXXooooXoo",
"*O...OO.OOOO=++O#####@@@@@@@#@@@@@@#@@@@@@@@###@++O=************",
"oXXOOOOOOOO@@@##@@@@##@@@@@++OOOOOO++@@@@@##@@@@@#@++***********",
"*--==---oO@+@##@@@@@@@#OOOOXooXXXoXoXXXOO#@@@@@@@##@++=-;-;---*-",
"OOO..O+O@@@@#@@#@@@@+O+XoooXXXXXXXXXXoooX+++@@@@##@@@@@+XOOOOOOO",
"-+.O+++#@@@@@@@@#+OOXooXXXX.&.&.&&...XXXXooXOO+#@@@@@@@@+.OXo+O.",
"-+.+++@@@@@@@@@@@OooXXX..&.. &&&&&&&..&&.XXXooO+@@@@@@#@@@.+++OO",
"-O+@+@*###@@@@+OoXX....&&&.. &&&&&&&..  &...XXXo++@@@@###;.OX+O.",
"o+++@#+@##@@@+OoX.&.&&&&&&.. &&&&&&&.. &&&&&...XoO+@@##@@+&@@+O.",
"oOOO+O#@@@#@+ooXX& &&&&&&&.. &&&&&&&.. &&&&&& &XXo:+@#@@@#++++O+",
"X+O+++#@@@@+:X..X& &&&&&&&.. &&&&&&&.. &&&&&&&&X..X:+@@@@#+++.O.",
"o+@:@#@@@@+OoX.&X& &&&&&&&.. &&&&&&&.. &&&&&&&&X &X-O@@@@@#@=.O.",
"o@@O@#@@@@;oX..&X& &&&&&&&.. &&&&&&&.. &&&&&&&.X &..o*@@@@#@O+..",
"o+,#@@###+ooX&&&X& &&&&&&&.. &&&&&&&.. &&&&&&&.X &&Xo-+###@@#=+.",
"o+,#@@@@+:XX.&&&X& &&&&&&&.. &&&&&&&.. &&&&&&&.X &&.XX:+@@@@#,+.",
"o+,#@@@@+:X.&&&&X& &&&&&&&.. &&&&&&&.. &&&&&&&&X &&&.X:+@@@@#O+.",
"<+,#@@@@+:X.&&&&X& &&&&&&&.. &&&&&&&.. &&&&&&&&X &&&.X:+@@@@#,+@",
"*@#@@@@O-X..&&&&X& &&&&&&&.. &&&&&&&.. &&&&&&&&X &&&.XX-=@@@@#@*",
":@#####O-X&&&&&&X& &&&&&&&.. &&&&&&&.. &&&&&&&&X &&&&&XoO#####@:",
":@#@@@@=oX  &&&&X& &&&&&&&.. &&&&&&&.. &&&&&&&&X &&&&&Xo=@@@@#@:",
":@#@@@@XoX &&&&&X& &&&&&&&.. &&&&&&&.. &&&&&&&&X &&&&&Xoo@@@@#@:",
":@#@@@@XXX......X.........X..........X........XX.......XX@@@@#@:",
":@#@@+.& &  & &&& &&&   & && &&  && && & &  &  &&&&  && &.+@@#@:",
":@####X  &&&&  &&&&&&& &&&&&&&&&  &&&&&&&&  &&&&&&& &&&&&X####@:",
":+#@@@X& &&&&&&&&&&&&&&&&&&&&&&&&&&&&&&&&&&&&&&&&&&&&&&&&X@@@#@:",
":@#@@@+&.................................................+@@@#@:",
":@#@@@@XXXXX.XXXXXXXXXXXX.XXXXXXXXXXXXXXXXXXXXXXXXXXXXXXX@@@@#@:",
":@#@@@@=oX&&......&&.....&..&&.....&..&&.......X&&.&..Xo,@@@@#@:",
":@#@###O-X &&&&&X& &&&&&&&.. &&&&&&&.. &&&&&&&.X &&&&&X-O#####@:",
":@#####OoX &&&&&X& &&&&&&&.. &&&&&&&.. &&&&&&&.X &&&&&XoO#####@:",
":@#@@@@=oX&&&.&&X& &&&&&&&.. &&&&&&&.. &&&&&&&.X &&&&&Xo=@@@@#@:",
":@#@@@@=oX &....X& &&&&&&&.. &&&&&&&.. &&&&&&&.X &&&&&Xo=@@@@#@:",
":@#@@@@=-X &X &XX& &&&&&&&.. &&&&&&&.. &&&&&&&.X  &&&&Xo=@@@@#@:",
":@#@@@@OoX &. &.X& &&&&&&&.. &&&&&&&.. &&&&&&&.X  &&&&Xo=@@@@#@:",
":@#####OoX  &X.&X& &&&&&&&.. &&&&&&&.. &&&&&&&.X &&&&&XoO#####@:",
":@#@@@@=oX &&X.&X& &&&&&&&.. &&&&&&&.. &&&&&&&.X &&&&&Xo=@@@@#@:",
":@#@@@@OoX  &X.&X& &&&&&&&.. &&&&&&&.. &&&&&&&.X &&&&&Xo=@@@@#@:",
":@#@@@@=oX &&X.&X& &&&&&&&.. &&&&&&&.. &&&&&&&&X &&&&&Xo=@@@@#@:",
":@#@@@@OoX  &X.&X& &&&&&&&.. &&&&&&&.. &&&&&&&&X &&&&&Xo=@@@@#@:",
":@#####OoX &&..&X& &&&&&&&.. &&&&&&&.. &&&&&&&&X &&&&&XoO#####@:",
":@#@@@@=oX &X &.X& &&&&&&&.. &&&&&&&.. &&&&&&&&X &&&&&Xo=@@@@#@:",
":@#@@@@OoX &X &XX& &&&&&&&.. &&&&&&&.. &&&&&&&&X &&&&&Xo=@@@@#@:",
":@#+@@@=oX &&..&X& &&&&&&&.. &&&&&&&.. &&&&&&&&X &&&&&Xo=@@@@#@:",
":@#@@@@=oX  &&&&X& &&&&&&&.. &&&&&&&.. &&&&&&&.X &&&&&Xo=@@@@#@:",
":@#####OoX &&&&&X& &&&&&&&.. &&&&&&&.. &&&&&&&.X &&&&&XoO#####@:",
":@#@@@@OoX &&&&&X& &&&&&&&.. &&&&&&&.. &&&&&&&&X &&&&&Xo,@@@@#@:",
":@#@@@@=o.&&&&&&X& &&&&&&&.. &&&&&&&..  &&&&&&&. &&&&&Xo,@@@@#@:",
":@#@@@@XoX......X.&.........&........X&........X&.....XXX@@@@#@:",
":@#@@@.&&&&&&&&&&&&&&&&&&&&&&&&&&&&&&&&&&&&&&&&&&&&&&&&&&.@@@#@:",
":@###@X& &&&&  && &&&  &&&&&&&&&  &&&&&&&&  &&&&& &  && &X@###@:",
":@####X& &&&& &&&&&&&&&&&&&&&&&&&&&&&&&&&&&&&&&&&&&&&&&&&X@###@:",
":@#@@@.&&..........&..&................&..&...&....&......@@@#@:",
":@#@@@@XXXXXXXXXXXXXXXXXXXXXXXXXXXXXXXXXXXXXXXXXXXXXXXXXX@@@@#@:",
":@#@@@@,oX&.....X.........X.&........X.........X......Xo,@@@@#@:",
":@#@@@@OoX &&&&&X& &&&&&&&.. &&&&&&&.. &&&&&&&.. &&&&&.o=@@@@#@:",
":@#####OoX &&&&&X& &&&&&&&.. &&&&&&&.. &&&&&&&.X &&&&&X-O#####@:",
":@#@@@@=oX &&&&&X& &&&&&&&.. &&&&&&&.. &&&&&&&&X &&&&&Xo=@@@@#@:",
":@#@@@@=oX &&&&&X& &&&&&&&.. &&&&&&&.. &&&&&&&.X &&&&&Xo=@@@@#@:",
":@#@@@@O-X  &&&&X& &&&&&&&.. &&&&&&&.. &&&&&&&.X &&&&&Xo=@@@@#@:",
"O@#@+@@=-X&&&&&&X& &&&&&&&X. &&&&&&&.. &&&&&&&.X &&&&&X-o@@+@#@=",
"$+,*,*;:::.....XoX....XX..oo..X....Xoo.....XXXXo.X..XX:::;*;;,+%"
};
